<svg width="1426" height="428" viewBox="0 0 1426 428" fill="none" xmlns="http://www.w3.org/2000/svg">
<path fill-rule="evenodd" clip-rule="evenodd" d="M554.385 146.776H554.39L554.385 146.781C554.425 147.207 554.463 147.628 554.501 148.044L554.502 148.057C554.931 152.817 555.298 156.901 558.156 158.655C559.425 159.438 562.662 161.021 565.49 161.021C562.662 161.021 559.352 162.706 558.083 163.489C555.243 165.23 554.913 168.925 554.496 173.587C554.457 174.031 554.416 174.483 554.373 174.944H554.37C550.789 217.93 532.543 252.94 510.566 277.02V277.022C506.324 281.668 501.947 285.907 497.507 289.718C496.848 290.187 493.489 290.757 493.001 289.718L437.746 173.3C435.736 169.381 433.347 166.547 430.571 164.803C427.534 162.894 424.604 161.94 421.779 161.94H420.081V159.821H476.042V161.94H474.346C472.087 161.94 469.967 163.001 467.989 165.118C466.193 167.04 465.798 169.778 466.793 173.327L510.566 277.019C518.92 266.483 535.767 231.354 538.462 175.478L538.25 175.485C538.25 170.686 537.089 167.237 535.178 165.118C533.268 163.001 518.804 160.901 516.262 160.901C518.804 160.901 533.268 158.76 535.178 156.643C537.089 154.522 538.186 151.076 538.186 146.279H538.25C531.5 67.3461 467.091 20.4417 398.516 20.4417C359.937 20.4417 329.428 33.8109 307.443 49.0994C323.231 37.0422 354.326 18.6273 398.516 18.6273C492.065 18.6273 547.945 81.0323 554.385 146.776ZM412.245 161.94C408.569 161.94 405.497 163.001 403.024 165.118C400.548 167.237 399.243 169.922 399.103 173.171V273.61C399.245 276.72 400.55 279.373 403.024 281.561C405.497 283.748 408.569 284.843 412.245 284.843H414.792V286.963H358.617V284.843H361.374C364.906 284.843 367.941 283.748 370.488 281.561C373.03 279.373 374.303 276.72 374.303 273.61V173.171C374.303 169.922 373.03 167.237 370.488 165.118C367.943 163.001 364.906 161.94 361.374 161.94H358.617V159.821H414.792L414.577 161.94H412.245ZM615.198 165.118C617.671 163.001 620.743 161.94 624.419 161.94H626.751L626.966 159.821H570.791V161.94H573.547C577.08 161.94 580.117 163.001 582.662 165.118C585.204 167.237 586.477 169.922 586.477 173.171V273.61C586.477 276.72 585.204 279.373 582.662 281.561C580.115 283.748 577.08 284.843 573.547 284.843H570.791V286.963H626.966V284.843H624.419C620.743 284.843 617.671 283.748 615.198 281.561C612.724 279.373 611.419 276.72 611.277 273.61V173.171C611.416 169.922 612.722 167.237 615.198 165.118ZM1207.9 210.371C1202.6 209.291 1198.35 206.533 1196.44 203.423C1195.66 202.155 1193.98 198.846 1193.98 196.019C1193.98 198.846 1192.39 202.082 1191.61 203.35C1189.7 206.46 1184.6 209.14 1179.73 210.064C1171.36 211.622 1164.34 213.971 1158.17 217.085V167.664H1193.15C1198.38 167.664 1202.4 169.22 1205.23 172.324C1208.05 175.434 1209.47 179.531 1209.47 184.613V186.945H1211.8V156.431C1209.96 157.138 1206.71 157.88 1202.05 158.655C1197.39 159.433 1193.01 159.821 1188.91 159.821H1118.75V161.94H1121.5C1124.75 161.94 1127.51 163.001 1129.77 165.12C1132.03 167.24 1133.23 169.925 1133.37 173.171V273.61C1133.23 276.72 1132.03 279.373 1129.77 281.561C1127.51 283.748 1124.75 284.843 1121.5 284.843H1118.75V286.963H1213.92L1223.25 250.942H1221.34C1219.36 256.593 1216.82 261.536 1213.71 265.772C1210.6 270.011 1206.75 273.296 1202.16 275.627C1197.56 277.959 1192.02 279.122 1185.52 279.122H1158.17V223.062C1164.83 220.395 1171.96 218.473 1179.95 217.349C1184.66 217.058 1186.53 218.185 1188.55 220.004C1192.52 223.765 1193.86 236.776 1193.86 239.317C1193.86 236.776 1195.27 223.07 1198.51 220.034C1200.6 218.085 1203.1 216.561 1208.45 217.336C1213.76 218.236 1219.13 219.736 1224.44 221.785C1260.32 234.164 1286.55 267.238 1288.86 306.736C1286.28 261.392 1253.12 217.634 1207.9 210.371ZM1084.48 309.218C1074.79 277.559 1065.03 245.643 1036.71 228.477L1028.45 222.965C1028.59 222.965 1029.37 223.002 1030.78 223.072C1032.19 223.143 1033.96 223.109 1036.08 222.965C1039.33 222.824 1042.62 222.328 1045.94 221.482C1049.26 220.634 1052.26 218.797 1054.95 215.973C1057.63 213.149 1059.68 208.767 1061.09 202.833C1061.52 201.704 1061.83 200.292 1062.05 198.597C1062.26 196.902 1062.29 194.993 1062.16 192.873C1062.01 188.069 1061.16 184.079 1059.61 180.901C1058.05 177.724 1056.08 175.217 1053.67 173.38C1051.27 171.542 1048.66 170.203 1045.83 169.352C1043.01 168.505 1040.32 168.013 1037.78 167.869C1033.68 167.727 1030.08 167.693 1026.97 167.764C1024.12 167.83 1022.29 167.861 1021.46 167.866V222.872V273.603C1021.6 276.854 1022.87 279.539 1025.27 281.656C1027.67 283.775 1030.36 284.833 1033.33 284.833H1035.66L1035.87 286.953H982.458V284.833H985C988.252 284.833 990.972 283.739 993.16 281.551C994.907 279.805 996.002 277.764 996.446 275.43V171.266C996.002 168.856 994.907 166.805 993.16 165.113C990.972 162.994 988.323 161.933 985.212 161.933H982.458V159.814H1043.5C1049.72 159.814 1055.55 160.45 1060.99 161.723C1066.43 162.996 1071.24 165.008 1075.4 167.761C1079.57 170.517 1082.82 174.083 1085.16 178.463C1087.49 182.845 1088.65 188.142 1088.65 194.356C1088.65 199.582 1087.52 204.706 1085.26 209.72C1083 214.737 1079.61 218.975 1075.09 222.436C1070.56 225.896 1064.91 228.052 1058.13 228.896C1066.69 231.718 1073.06 235.107 1082.7 244.748C1091.28 253.327 1096.64 267.85 1101.31 284.802C1098.69 293.542 1097.28 302.807 1097.28 312.404C1097.28 363.173 1136.77 404.725 1186.72 408.032C1186.73 408.033 1186.74 408.034 1186.75 408.035C1186.76 408.036 1186.78 408.037 1186.79 408.037L1187.38 408.073C1187.61 408.085 1187.84 408.1 1188.07 408.112L1188.39 408.127C1188.7 408.141 1189.01 408.156 1189.31 408.168C1189.39 408.173 1189.47 408.176 1189.55 408.178C1189.75 408.186 1189.96 408.192 1190.16 408.199L1190.52 408.21C1190.54 408.21 1190.57 408.212 1190.59 408.213H1190.59H1190.59H1190.59H1190.59C1190.62 408.214 1190.65 408.215 1190.67 408.216L1190.7 408.216C1190.72 408.217 1190.74 408.217 1190.75 408.217C1190.88 408.22 1191.01 408.222 1191.13 408.225L1191.41 408.229L1191.71 408.234L1191.77 408.236C1166.49 407.918 1138.8 398.78 1118.06 378.045C1100.23 360.705 1092.38 335.047 1084.48 309.218ZM1191.77 408.236L1192.05 408.239H1191.96C1191.9 408.239 1191.84 408.238 1191.77 408.236ZM1021.46 222.872C1025.03 223.075 1032.58 225.905 1036.71 228.479L1028.45 222.97C1027.29 222.873 1023.95 222.872 1021.46 222.872ZM816.286 224.157C814.12 239.458 810.295 251.667 804.811 260.785C799.322 269.903 792.289 276.43 783.711 280.373C775.129 284.314 765.044 286.282 753.451 286.282C741.544 285.977 731.146 282.692 722.259 276.432C713.372 270.174 706.492 261.365 701.621 250.006C696.751 238.651 694.317 225.321 694.317 210.018C694.317 194.714 696.827 181.472 701.855 170.266C706.878 159.062 713.989 150.41 723.189 144.306C732.386 138.201 743.322 135.148 756 135.148C768.679 135.148 780.613 138.511 790.43 145.232C800.246 151.954 807.089 162.657 810.953 177.336H813.039L811.185 140.016C804.535 136.309 796.424 133.102 786.839 130.397C777.256 127.695 766.432 126.342 754.376 126.342C735.669 126.342 719.515 129.783 705.912 136.658C692.309 143.533 681.797 153.268 674.376 165.864C666.955 178.46 663.247 193.334 663.247 210.486C663.247 227.638 666.994 242.98 674.493 255.571C681.987 268.167 692.538 277.864 706.141 284.663C719.746 291.462 735.513 294.935 753.449 295.091C764.729 295.091 774.582 293.659 783.009 290.806C791.435 287.948 798.585 284.085 804.459 279.215C810.334 274.344 815.047 268.899 818.604 262.87L818.143 224.157H816.286ZM959.351 272.55C961.329 276.932 963.871 280.076 966.981 281.98L966.977 281.983C970.087 283.892 973.056 284.843 975.881 284.843H977.576V286.963H921.618V284.843H923.314C925.717 284.843 927.905 283.785 929.886 281.666C931.864 279.549 932.077 276.512 930.52 272.554H930.523L927.219 264.68C922.009 253.152 910.216 244.094 897.284 244.094C884.352 244.094 873.43 252.249 867.963 263.099L863.921 272.554H863.967C862.413 276.51 862.623 279.549 864.601 281.666C866.58 283.785 868.771 284.843 871.173 284.843H872.869V286.963H831.111V284.843H832.809C835.776 284.843 838.813 283.892 841.923 281.983C845.031 280.076 847.573 276.934 849.554 272.552H849.606L893.007 179.316C893.146 178.75 893.676 177.482 894.595 175.502C895.513 173.524 896.54 171.195 897.669 168.51C898.799 165.828 899.821 163.25 900.741 160.777C901.658 158.302 902.187 156.36 902.331 154.946H904.241L959.346 272.55H959.351ZM869.461 259.6C877.006 245.05 892.207 235.105 909.735 235.105C911.497 235.105 913.234 235.207 914.944 235.403L897.545 193.927L869.461 259.6ZM338.966 218.651C336.632 235.139 332.509 248.296 326.598 258.122C320.685 267.948 313.105 274.981 303.861 279.229C294.613 283.478 283.745 285.597 271.252 285.597C258.42 285.268 247.218 281.729 237.64 274.981C228.063 268.238 220.649 258.744 215.401 246.504C210.154 234.266 207.531 219.902 207.531 203.411C207.531 186.92 210.237 172.649 215.655 160.572C221.068 148.5 228.731 139.174 238.645 132.595C248.555 126.017 260.343 122.725 274.004 122.725C287.665 122.725 300.527 126.349 311.107 133.592C321.687 140.835 329.059 152.371 333.224 168.188H335.471L333.473 127.971C326.308 123.976 317.564 120.521 307.235 117.604C296.909 114.692 285.245 113.234 272.252 113.234C252.095 113.234 234.686 116.94 220.024 124.349C205.363 131.758 194.036 142.25 186.042 155.824C178.045 169.398 174.049 185.428 174.049 203.909C174.049 222.389 178.086 238.927 186.168 252.496C194.246 266.07 205.614 276.52 220.276 283.848C234.937 291.177 251.929 294.918 271.255 295.086C283.411 295.086 294.03 293.545 303.11 290.467C312.19 287.387 319.894 283.224 326.227 277.976C332.56 272.728 337.637 266.86 341.469 260.361L340.972 218.643H338.969L338.966 218.651Z" fill="white"/>
</svg>
