<?xml version="1.0" encoding="UTF-8"?>
<svg id="Livello_1" xmlns="http://www.w3.org/2000/svg" version="1.1" viewBox="0 0 544.3 306.1">
  <!-- Generator: Adobe Illustrator 30.2.1, SVG Export Plug-In . SVG Version: 2.1.1 Build 1)  -->
  <defs>
    <style>
      .st0 {
        opacity: .3;
      }

      .st1 {
        fill: #2697cc;
        fill-opacity: .6;
      }
    </style>
  </defs>
  <g class="st0">
    <path class="st1" d="M9.3-35C27.2-14.8,56-3.4,82.3-8.6c5.7-1.1,11.1-2.9,16.6-5.1,13.6-5.4,26.8-12.6,41-17.3,9.4-3.1,18.9-4.9,29.2-5,20.9-.5,42.3,7.4,55.3,24.6,18.5,24.1,13.7,61.6-10.8,79.7-13.4,10.1-31.2,12.8-47.4,10.9-7.1-.8-14.3-2.4-21.1-4-8.1-2.1-15.3-4-23-5.3-.9-.2-1.8-.3-2.7-.3-4.6-.2-9.3-1.1-13.4-2.1-25.1-6.8-47.8-20.5-72.8-27.5-8.3-2.2-16.1-3.6-24-2.1-4.9.8-9.1,3.2-11.2,8.1v.3c-.2.4-.3.7-.3.9,0,.5,0,.8.2,1.1.2.3.4.7.7,1.2,1.7,2.7,3.8,4.7,6.7,7.2,4.5,3.8,9.5,7.4,14.5,10.8,30.3,20.4,60.2,42.5,62.7,82.6.2,2.1-.2,4.3-.6,6.4-.5,3-1.4,5.8-2.4,8.6-4.2,11.2-12,20.2-20.9,27.6-11.7,9.8-25.3,16.8-37.4,25.4-7.3,5.4-16.4,12.8-16.4,21.9.2,5.4,3.6,10.9,7.4,14.8,20.9,20.6,59.3,13.1,83.8,3.1,10.5-4.2,20.9-9.5,30.2-15.6l.5-.3c.2-.2.8-.7,1-.8,5.2-4.3,13.4-13.3,18.2-18.3,5.8-6,11.2-12.5,15.4-19.9,9.7-17.3,17.8-35.4,26.3-53.5,7.4-14.1,14.3-28.3,21-42.6,5.6-11.8,11.2-23.5,17.3-35.1.8-1.4,1.5-2.9,2.1-4.4,2.7-6.4,5.9-12.7,9.3-18.7,4.3-7.6,9.3-15,14.7-21.9,30.2-39.1,72.1-63.7,121.4-69,8-.9,16-1.3,24.1-1.3,26.6.2,53,4.3,78.3,12.9,14.1,4.9,28.4,11.7,40.3,21.1,11.7,9.3,21.6,20.7,29.8,33.2,14.2,21.9,23.9,48.5,20.2,75-2.3,16.4-10.4,30.2-26.7,35.8-13.7,4.8-27.9,2.3-40.9-3.2-6.4-2.7-12.3-5.8-18.4-9-21.8-11.5-44.4-23.5-69.3-25.1-12.6-.8-25.9.9-36.8,6.9-10.5,5.8-22.4,19.9-18.1,32.4,3.1,9,11.5,16,20.1,20.7,4.5,2.4,9,4.1,14.1,5.7,18,5.5,37.2,6.9,55.9,11,14.5,3.2,28.9,7.8,41.7,15.6,25.4,15.1,37.7,41.7,40.7,70.3,2.9,26.9-2.4,54.9-17.7,77.5-18.1,26.6-47.5,43.7-79.2,48-36.9,5-75.7-5.5-104.7-28.8-18.8-15.1-33.7-39-26.4-63.9,6.4-21.8,27.9-37,50.1-38.1,21.5-1.1,42.2,9.6,57.1,24.4-2.8-1.6-5.7-3.1-8.6-4.6-14.7-7-31.8-10.9-47.9-6.8-13.7,3.6-27.1,15.6-28.9,30-1.8,17.8,15.3,31,29.8,38.3,30.8,15.3,71.3,16.9,100.1-3.2,8.1-5.7,14.5-13.1,19.9-21.4,13.8-21.3,29.7-55.7,15.5-80.1-9.8-16-29.3-21.2-47.1-23.1-19.4-1.9-39.8-.5-59.4-3.7-16.2-2.5-31.7-8.1-45.1-18.1-22.3-16.2-34.9-43.4-28.2-70.9,6-25.2,26.6-45.6,51.2-52.6,24.8-7.2,51.3-1.2,73.9,9.6,24.9,11.8,47.9,29.2,73.4,39.6,4.7,1.8,9.5,3.1,14.5,3.3,5.5.2,11.5-1.2,15.4-5.1,3.5-3.7,4.3-8.9,4.4-14.1.2-8-1.7-15.5-4.9-22.9-9.2-21-27.3-39.3-47.2-50.4-18.7-9.7-39.6-13.6-60.6-16.4-39.6-4.6-81.8-3-117.9,15-14.4,7.1-27.7,16.6-39,28-7.8,7.9-14.7,16.9-20.4,26.4-1.2,2-2.4,4.1-3.3,6.2-11.2,24.7-23.1,50-32.4,75.4-.3.9-1.1,3-1.5,3.9-4.8,11.7-7.7,24.8-10.9,37.1-2.5,10-5.8,20.1-9,29.9-2.1,6.2-4.4,12.5-7.4,18.5-7.9,16-21.6,28.3-38.4,35.2-40.3,19-111.9,22.3-146.9-8.4-6-5.3-11-11.8-14.5-19.1-6.1-12.8-4.9-26.4,1.8-38.7,4.5-8.5,10.3-15.6,16.3-22.9,9-10.9,18.7-20.8,25.7-32.7,1.1-1.9,2-3.9,2.6-5.8.4-1.4.7-2.5.5-3.8-.2-.5-.3-.8-.6-1.1,0-.2,0-.5.2-.6,2.7-11.4-2.2-21.8-8.4-31.7-8.3-12.8-19.7-24.2-30.1-36-7.9-9.2-17.5-20.4-16.7-33.6.4-5.5,2.7-10.3,6.3-14.3C-7.7,23.4,3.3,17.7,16.6,17.9c14.2,0,27.9,4.6,40.9,9.4,17.9,6.5,34.9,15.2,53.2,19.9,3.1.8,5.9,1.2,8.7,1.3.3,0,.9,0,1.2,0,1.7.2,3.5,0,5.2,0,7.6,0,15.4.5,22.5.5,10.7.2,22-.4,31.7-5.2,3-1.5,5.7-3.5,7.7-6.2.9-1.3,1.5-2.7,2.1-4.2,1.9-5.8,1.7-12.8-2.1-17.5-4.9-5.9-12.7-8.1-20.6-9.3-7.3-1-15.6-.8-23.2.2-18,2.4-36,7.4-54.7,7.8-9.2.3-18.6-.7-27.4-3.3C38.9,4.7,18-12.4,9.3-35.1h0v.2Z"/>
  </g>
</svg>