<svg width="1636" height="584" viewBox="0 0 1636 584" fill="none" xmlns="http://www.w3.org/2000/svg">
<path d="M1493.44 583.592H1493.31C1493.19 583.592 1493.07 583.588 1492.95 583.584C1492.92 583.584 1492.89 583.582 1492.87 583.582C1493.06 583.585 1493.25 583.59 1493.44 583.592ZM1275.52 211.479C1284.64 211.48 1293.19 212.433 1301.17 214.34C1309.15 216.247 1316.2 219.261 1322.32 223.385C1328.43 227.513 1333.2 232.853 1336.62 239.414C1340.04 245.978 1341.76 253.912 1341.76 263.22C1341.76 271.048 1340.09 278.723 1336.78 286.233C1333.46 293.747 1328.49 300.097 1321.85 305.28C1315.21 310.464 1306.92 313.693 1296.98 314.957C1309.53 319.183 1318.88 324.261 1333.02 338.701C1345.61 351.552 1353.47 373.306 1360.33 398.697C1356.48 411.789 1354.41 425.667 1354.41 440.041C1354.41 516.088 1412.34 578.328 1485.62 583.281C1485.65 583.285 1485.69 583.288 1485.72 583.288C1486.01 583.306 1486.3 583.325 1486.59 583.343C1486.93 583.361 1487.27 583.383 1487.61 583.401C1487.77 583.409 1487.92 583.417 1488.07 583.424C1488.53 583.446 1488.98 583.467 1489.43 583.485C1489.54 583.493 1489.66 583.496 1489.77 583.5C1490.24 583.518 1490.72 583.533 1491.19 583.548C1491.31 583.552 1491.42 583.559 1491.54 583.559C1491.98 583.569 1492.42 583.575 1492.87 583.582C1455.82 583.066 1415.28 569.377 1384.9 538.364C1326.91 480.782 1340.88 361.953 1266.44 314.879L1253.43 306.073C1253.64 306.073 1254.78 306.127 1256.85 306.233C1258.93 306.339 1261.52 306.289 1264.63 306.073C1269.4 305.861 1274.22 305.119 1279.09 303.852C1283.96 302.58 1288.37 299.83 1292.31 295.6C1296.25 291.37 1299.25 284.805 1301.32 275.918C1301.94 274.227 1302.41 272.111 1302.72 269.572C1303.03 267.034 1303.09 264.173 1302.88 260.999C1302.67 253.803 1301.43 247.826 1299.15 243.066C1296.87 238.307 1293.96 234.551 1290.44 231.801C1286.91 229.047 1283.08 227.041 1278.94 225.767C1274.79 224.499 1270.85 223.76 1267.12 223.545C1261.11 223.333 1255.82 223.282 1251.26 223.388C1247.09 223.486 1244.4 223.535 1243.17 223.542V305.941C1246.84 305.941 1251.73 305.942 1253.43 306.088L1265.56 314.34C1259.49 310.484 1248.42 306.243 1243.17 305.941V381.923C1243.39 386.792 1245.25 390.814 1248.77 393.984C1252.3 397.159 1256.23 398.744 1260.59 398.744H1264.01L1264.32 401.919H1185.96V398.744H1189.69C1194.46 398.744 1198.45 397.104 1201.66 393.828C1204.23 391.213 1205.83 388.155 1206.48 384.659V228.634C1205.83 225.025 1204.23 221.952 1201.66 219.417C1198.45 216.243 1194.57 214.654 1190 214.654H1185.96V211.479H1275.52ZM1522.42 252.119H1519V248.627C1519 241.014 1516.92 234.877 1512.78 230.22C1508.63 225.57 1502.73 223.239 1495.06 223.239H1443.74V297.266C1452.8 292.601 1463.09 289.083 1475.37 286.749C1482.52 285.365 1489.99 281.35 1492.79 276.692C1493.94 274.793 1496.27 269.946 1496.27 265.712C1496.27 269.946 1498.74 274.902 1499.89 276.802C1502.69 281.459 1508.93 285.591 1516.7 287.209C1583.03 298.087 1631.68 363.633 1635.46 431.553C1632.08 372.389 1593.6 322.847 1540.96 304.305C1533.17 301.236 1525.29 298.991 1517.5 297.643C1509.66 296.481 1505.98 298.764 1502.92 301.683C1498.16 306.231 1496.1 326.76 1496.1 330.566C1496.1 326.76 1494.13 307.272 1488.3 301.639C1485.34 298.914 1482.61 297.226 1475.69 297.66C1463.96 299.344 1453.5 302.223 1443.74 306.22V390.189H1483.86C1493.4 390.189 1501.53 388.447 1508.27 384.955C1515 381.463 1520.65 376.542 1525.22 370.193C1529.78 363.848 1533.51 356.443 1536.42 347.979H1539.21L1525.53 401.935H1385.9V398.76H1389.95C1394.72 398.76 1398.76 397.119 1402.07 393.843C1405.39 390.566 1407.15 386.592 1407.36 381.935V231.487C1407.15 226.625 1405.39 222.603 1402.07 219.429C1398.76 216.254 1394.71 214.665 1389.95 214.665H1385.9V211.491H1488.83C1494.85 211.491 1501.27 210.91 1508.11 209.745C1514.95 208.583 1519.72 207.472 1522.42 206.413V252.119ZM851.361 161.345C869.048 161.345 884.928 163.373 898.985 167.42C913.047 171.471 924.947 176.275 934.703 181.827L937.423 237.728H934.363C928.694 215.741 918.655 199.708 904.254 189.641C889.852 179.573 872.345 174.535 853.745 174.535C835.146 174.535 819.102 179.109 805.609 188.252C792.113 197.395 781.68 210.356 774.312 227.138C766.935 243.923 763.253 263.759 763.253 286.682C763.253 309.604 766.824 329.571 773.968 346.579C781.115 363.594 791.207 376.789 804.245 386.162C817.283 395.539 832.536 400.459 850.005 400.916C867.012 400.916 881.807 397.969 894.397 392.065C906.981 386.159 917.299 376.383 925.352 362.725C933.397 349.066 939.008 330.78 942.187 307.861H944.91L945.587 365.848C940.369 374.878 933.454 383.035 924.836 390.33C916.218 397.625 905.729 403.411 893.367 407.692C881.006 411.966 866.551 414.111 850.002 414.111C823.69 413.878 800.559 408.676 780.6 398.491C760.644 388.307 745.165 373.782 734.171 354.915C723.169 336.055 717.672 313.074 717.672 287.383C717.672 261.692 723.112 239.412 733.999 220.545C744.886 201.677 760.308 187.095 780.264 176.797C800.219 166.499 823.919 161.345 851.361 161.345ZM144.068 141.705C163.129 141.705 180.24 143.889 195.39 148.251C210.543 152.62 223.37 157.797 233.881 163.78L236.812 224.021H233.516C227.406 200.328 216.591 183.049 201.069 172.2C185.548 161.351 166.679 155.923 146.638 155.923C126.596 155.923 109.303 160.854 94.7656 170.706C80.2211 180.562 68.9796 194.531 61.0381 212.613C53.0896 230.703 49.1211 252.079 49.1211 276.78C49.1211 301.481 52.9679 322.998 60.666 341.328C68.3642 359.662 79.2403 373.884 93.291 383.984C107.342 394.092 123.776 399.393 142.601 399.886C160.928 399.886 176.873 396.711 190.44 390.348C204.001 383.984 215.12 373.449 223.795 358.731C232.467 344.014 238.515 324.306 241.94 299.608L241.943 299.597H244.882L245.612 362.085C239.99 371.82 232.542 380.609 223.251 388.47C213.96 396.331 202.658 402.567 189.338 407.181C176.017 411.791 160.438 414.099 142.604 414.099C114.253 413.847 89.3255 408.244 67.8164 397.267C46.3073 386.289 29.63 370.636 17.7803 350.304C5.92343 329.979 0 305.207 0 277.525C6.43674e-05 249.844 5.86244 225.833 17.5938 205.501C29.3218 185.169 45.9391 169.453 67.4482 158.355C88.9573 147.258 114.496 141.705 144.068 141.705ZM329.299 0C466.538 0 548.517 93.4758 557.965 191.952H557.972L557.965 191.959C558.699 199.893 558.935 206.885 563.498 209.745C565.359 210.918 570.108 213.289 574.256 213.289C570.108 213.289 565.252 215.813 563.391 216.985C558.828 219.842 558.68 226.209 557.946 234.144H557.943C552.69 298.531 525.921 350.971 493.681 387.04V387.041C487.457 394 481.037 400.349 474.523 406.059C473.557 406.76 468.629 407.614 467.913 406.059L386.852 231.677C383.903 225.807 380.399 221.562 376.326 218.95C371.871 216.09 367.572 214.662 363.428 214.662H360.937V211.487H443.032V214.662H440.545C437.231 214.662 434.121 216.251 431.219 219.422C428.585 222.3 428.005 226.403 429.465 231.718L493.681 387.037V387.039C505.936 371.255 530.651 318.637 534.605 234.943L534.294 234.954C534.294 227.765 532.59 222.6 529.788 219.426C526.986 216.255 505.766 213.109 502.037 213.109C505.766 213.109 526.986 209.902 529.788 206.731C532.59 203.553 534.201 198.392 534.201 191.207H534.294C524.391 72.9754 429.901 2.71777 329.299 2.71777C272.703 2.71779 227.945 22.7433 195.692 45.6436C218.855 27.5833 264.471 2.22049e-05 329.299 0ZM1152.06 380.346H1152.07C1154.97 386.91 1158.7 391.619 1163.26 394.472L1163.25 394.475C1167.82 397.335 1172.17 398.76 1176.32 398.76H1178.8V401.935H1096.71V398.76H1099.2C1102.72 398.76 1105.93 397.174 1108.84 394C1111.74 390.829 1112.05 386.281 1109.77 380.353H1109.78L1104.93 368.558C1097.28 351.29 1079.98 337.723 1061.01 337.723C1042.04 337.723 1026.02 349.938 1018 366.19L1012.07 380.353H1012.14C1009.86 386.278 1010.16 390.829 1013.07 394C1015.97 397.174 1019.18 398.76 1022.71 398.76H1025.2V401.935H963.936V398.76H966.427C970.779 398.76 975.234 397.335 979.797 394.475C984.356 391.618 988.086 386.913 990.992 380.349H991.067L1054.74 240.693C1054.94 239.846 1055.72 237.946 1057.07 234.979C1058.41 232.017 1059.92 228.529 1061.58 224.507C1063.24 220.489 1064.73 216.627 1066.08 212.923C1067.43 209.215 1068.21 206.307 1068.42 204.188H1071.22L1152.06 380.346ZM352.862 214.662H349.441C344.048 214.662 339.542 216.251 335.913 219.422C332.281 222.596 330.366 226.618 330.162 231.483V381.931C330.37 386.588 332.284 390.562 335.913 393.839C339.542 397.116 344.048 398.756 349.441 398.756H353.178V401.931H270.767V398.756H274.811C279.993 398.756 284.445 397.116 288.182 393.839C291.911 390.562 293.779 386.588 293.779 381.931V231.483C293.779 226.618 291.911 222.596 288.182 219.422C284.449 216.251 279.993 214.662 274.811 214.662H270.767V211.487H353.178L352.862 214.662ZM664.13 214.662H660.708C655.315 214.662 650.81 216.251 647.181 219.422C643.548 222.596 641.633 226.618 641.429 231.483V381.931C641.636 386.588 643.552 390.562 647.181 393.839C650.81 397.115 655.315 398.756 660.708 398.756H664.444V401.931H582.034V398.756H586.078C591.26 398.756 595.712 397.115 599.448 393.839C603.177 390.562 605.046 386.588 605.046 381.931V231.483C605.046 226.618 603.177 222.596 599.448 219.422C595.716 216.251 591.26 214.662 586.078 214.662H582.034V211.487H664.444L664.13 214.662ZM1020.2 360.948C1031.26 339.155 1053.57 324.258 1079.28 324.258C1081.86 324.258 1084.41 324.411 1086.92 324.703L1061.4 262.578L1020.2 360.948Z" fill="#258CBD"/>
</svg>
